<svg xmlns="http://www.w3.org/2000/svg" xmlns:xlink="http://www.w3.org/1999/xlink" width="100" zoomAndPan="magnify" viewBox="0 0 75 74.999997" height="100" preserveAspectRatio="xMidYMid meet" version="1.0"><defs><clipPath id="bb23a4db80"><path d="M 0.601562 1 L 74.101562 1 L 74.101562 73 L 0.601562 73 Z M 0.601562 1 " clip-rule="nonzero"/></clipPath></defs><g clip-path="url(#bb23a4db80)"><path fill="#4fc0e8" d="M 37.351562 1.289062 C 17.046875 1.289062 0.601562 17.734375 0.601562 38.039062 C 0.601562 54.300781 11.121094 68.035156 25.726562 72.90625 C 27.566406 73.226562 28.253906 72.125 28.253906 71.160156 C 28.253906 70.289062 28.207031 67.394531 28.207031 64.316406 C 18.976562 66.015625 16.585938 62.0625 15.851562 59.996094 C 15.4375 58.941406 13.644531 55.679688 12.085938 54.804688 C 10.796875 54.117188 8.960938 52.417969 12.039062 52.371094 C 14.933594 52.324219 17 55.035156 17.6875 56.136719 C 20.996094 61.695312 26.277344 60.136719 28.390625 59.171875 C 28.714844 56.78125 29.679688 55.171875 30.734375 54.253906 C 22.558594 53.335938 14.015625 50.167969 14.015625 36.109375 C 14.015625 32.113281 15.4375 28.804688 17.78125 26.234375 C 17.414062 25.3125 16.125 21.546875 18.148438 16.496094 C 18.148438 16.496094 21.226562 15.53125 28.253906 20.261719 C 31.195312 19.433594 34.316406 19.019531 37.441406 19.019531 C 40.566406 19.019531 43.6875 19.433594 46.628906 20.261719 C 53.65625 15.484375 56.734375 16.496094 56.734375 16.496094 C 58.757812 21.546875 57.46875 25.3125 57.101562 26.234375 C 59.445312 28.804688 60.871094 32.066406 60.871094 36.109375 C 60.871094 50.210938 52.28125 53.335938 44.101562 54.253906 C 45.433594 55.402344 46.582031 57.609375 46.582031 61.054688 C 46.582031 65.96875 46.539062 69.917969 46.539062 71.160156 C 46.539062 72.125 47.226562 73.273438 49.0625 72.90625 C 50.878906 72.292969 52.632812 71.542969 54.328125 70.660156 C 56.023438 69.773438 57.640625 68.761719 59.179688 67.621094 C 60.71875 66.484375 62.160156 65.234375 63.503906 63.871094 C 64.847656 62.507812 66.078125 61.050781 67.191406 59.496094 C 68.308594 57.941406 69.296875 56.3125 70.160156 54.605469 C 71.019531 52.894531 71.746094 51.128906 72.332031 49.308594 C 72.917969 47.488281 73.359375 45.632812 73.65625 43.742188 C 73.953125 41.851562 74.101562 39.953125 74.101562 38.039062 C 74.101562 17.734375 57.65625 1.289062 37.351562 1.289062 Z M 37.351562 1.289062 " fill-opacity="1" fill-rule="nonzero"/></g></svg>